<svg version="1.1" id="Layer_1" xmlns:x="ns_extend;" xmlns:i="ns_ai;" xmlns:graph="ns_graphs;" xmlns="http://www.w3.org/2000/svg" xmlns:xlink="http://www.w3.org/1999/xlink" x="0px" y="0px" viewBox="0 0 785.9 100" style="enable-background:new 0 0 785.9 100;" xml:space="preserve">
 <style type="text/css">
  .st0{fill:#141414;}
 </style>
 <metadata>
  <sfw xmlns="ns_sfw;">
   <slices>
   </slices>
   <sliceSourceBounds bottomLeftOrigin="true" height="100" width="785.9" x="-450.3" y="-217.4">
   </sliceSourceBounds>
  </sfw>
 </metadata>
 <g>
  <path id="XMLID_622_" class="st0" d="M110.4,97.6V53.9c0-16.5-10.5-27.5-27.4-27.7c-8.9-0.1-18.1,2.6-24.5,12.4
		c-4.8-7.7-12.4-12.4-23-12.4c-7.4,0-14.7,2.2-20.4,10.3V28H0v69.6h15.3V59c0-12.1,6.7-18.5,17-18.5c10,0,15.1,6.6,15.1,18.4v38.7
		h15.3V59c0-12.1,7-18.5,17-18.5c10.3,0,15.3,6.6,15.3,18.4v38.7H110.4z M336.8,28H312V6.8h-15.3V28h-14.1v13.8h14.1v31.8
		c0,16.2,6.3,25.8,24.2,25.8c6.6,0,14.1-2,18.9-5.4l-4.4-13c-4.5,2.6-9.5,3.9-13.4,3.9c-7.6,0-10-4.7-10-11.7V41.8h24.8V28z
		 M465.9,26.2c-8.7,0-14.4,4.1-18.4,10.2V28h-15v69.6h15.1v-39c0-11.5,5-17.9,14.9-17.9c3.1,0,6.3,0.4,9.5,1.7l4.7-14.3
		C473.4,26.8,469,26.2,465.9,26.2L465.9,26.2z M270.6,33.5c-7.3-4.8-17.3-7.3-28.4-7.3c-17.6,0-29,8.4-29,22.3
		c0,11.4,8.4,18.4,24,20.5l7.1,1c8.3,1.2,12.2,3.3,12.2,7.3c0,5.4-5.5,8.4-15.9,8.4c-10.5,0-18.1-3.4-23.2-7.3l-7.1,11.8
		c8.3,6.1,18.8,9,30.2,9c20.1,0,31.8-9.5,31.8-22.7c0-12.2-9.2-18.6-24.3-20.8l-7.1-1c-6.6-0.9-11.8-2.2-11.8-6.8
		c0-5.1,5-8.2,13.3-8.2c8.9,0,17.5,3.4,21.7,6L270.6,33.5z M676.4,26.2c-8.7,0-14.4,4.1-18.4,10.2V28h-15v69.6h15.1v-39
		c0-11.5,5-17.9,14.9-17.9c3.1,0,6.3,0.4,9.5,1.7l4.7-14.3C683.8,26.8,679.5,26.2,676.4,26.2L676.4,26.2z M481.2,62.8
		c0,21.1,14.7,36.6,37.1,36.6c10.5,0,17.5-2.3,25.1-8.3l-7.3-12.2c-5.7,4.1-11.7,6.3-18.2,6.3c-12.1-0.1-21-8.9-21-22.3
		c0-13.4,8.9-22.1,21-22.3c6.6,0,12.5,2.2,18.2,6.3l7.3-12.2c-7.6-6-14.6-8.3-25.1-8.3C496,26.2,481.2,41.7,481.2,62.8L481.2,62.8z
		 M623.1,62.8V28H608v8.4c-4.8-6.3-12.1-10.2-22-10.2c-19.5,0-34.8,15.3-34.8,36.6c0,21.3,15.3,36.6,34.8,36.6
		c9.9,0,17.2-3.9,22-10.2v8.4h15.1V62.8z M566.7,62.8c0-12.2,8-22.3,21.1-22.3c12.5,0,21,9.6,21,22.3s-8.4,22.3-21,22.3
		C574.7,85.1,566.7,75,566.7,62.8L566.7,62.8z M383.9,26.2c-20.4,0-34.7,14.9-34.7,36.6c0,22.1,14.9,36.6,35.7,36.6
		c10.5,0,20.1-2.6,28.5-9.8l-7.4-11.2c-5.8,4.7-13.3,7.3-20.2,7.3c-9.8,0-18.6-4.5-20.8-17h51.7c0.1-1.9,0.3-3.8,0.3-5.8
		C416.9,41.1,403.5,26.2,383.9,26.2L383.9,26.2z M383.7,39.8c9.8,0,16,6.1,17.6,16.9h-36.1C366.8,46.6,372.9,39.8,383.7,39.8
		L383.7,39.8z M763.7,62.8V0h-15.1v36.4c-4.8-6.3-12.1-10.2-22-10.2c-19.5,0-34.8,15.3-34.8,36.6c0,21.3,15.3,36.6,34.8,36.6
		c9.9,0,17.2-3.9,22-10.2v8.4h15.1V62.8z M781.4,91.2c0.6,0,1.2,0.1,1.7,0.3c0.5,0.2,1,0.5,1.4,0.9c0.4,0.4,0.7,0.9,1,1.4
		c0.2,0.5,0.4,1.1,0.4,1.7c0,0.6-0.1,1.2-0.4,1.7c-0.2,0.5-0.6,1-1,1.4c-0.4,0.4-0.9,0.7-1.4,1c-0.5,0.2-1.1,0.4-1.7,0.4
		c-0.6,0-1.2-0.1-1.8-0.4c-0.6-0.2-1-0.6-1.4-1c-0.4-0.4-0.7-0.9-1-1.4c-0.2-0.5-0.4-1.1-0.4-1.7c0-0.6,0.1-1.2,0.4-1.7
		c0.2-0.5,0.6-1,1-1.4c0.4-0.4,0.9-0.7,1.4-0.9C780.1,91.3,780.7,91.2,781.4,91.2z M781.4,99c0.5,0,0.9-0.1,1.3-0.3
		c0.4-0.2,0.8-0.4,1.1-0.7c0.3-0.3,0.6-0.7,0.7-1.1c0.2-0.4,0.3-0.9,0.3-1.3c0-0.5-0.1-0.9-0.3-1.3c-0.2-0.4-0.4-0.8-0.7-1.1
		c-0.3-0.3-0.7-0.6-1.1-0.7c-0.4-0.2-0.9-0.3-1.3-0.3c-0.5,0-0.9,0.1-1.4,0.3c-0.4,0.2-0.8,0.4-1.1,0.7c-0.3,0.3-0.6,0.7-0.7,1.1
		c-0.2,0.4-0.3,0.9-0.3,1.3c0,0.5,0.1,0.9,0.3,1.3c0.2,0.4,0.4,0.8,0.7,1.1c0.3,0.3,0.7,0.6,1.1,0.7C780.4,98.9,780.9,99,781.4,99z
		 M781.6,93.5c0.5,0,0.9,0.1,1.2,0.4c0.3,0.2,0.4,0.6,0.4,1c0,0.3-0.1,0.6-0.3,0.8c-0.2,0.2-0.6,0.4-1,0.4l1.3,1.5h-1.1l-1.2-1.5
		h-0.4v1.5h-0.9v-4.1H781.6z M780.6,94.3v1.1h1c0.2,0,0.4,0,0.6-0.1c0.1-0.1,0.2-0.2,0.2-0.4c0-0.2-0.1-0.3-0.2-0.4
		c-0.1-0.1-0.3-0.1-0.6-0.1H780.6z M707.3,62.8c0-12.2,8-22.3,21.1-22.3c12.5,0,21,9.6,21,22.3s-8.4,22.3-21,22.3
		C715.3,85.1,707.3,75,707.3,62.8L707.3,62.8z M195.8,62.8V28h-15.1v8.4c-4.8-6.3-12.1-10.2-22-10.2c-19.5,0-34.8,15.3-34.8,36.6
		c0,21.3,15.3,36.6,34.8,36.6c9.9,0,17.2-3.9,22-10.2v8.4h15.1V62.8z M139.4,62.8c0-12.2,8-22.3,21.1-22.3c12.5,0,21,9.6,21,22.3
		s-8.4,22.3-21,22.3C147.4,85.1,139.4,75,139.4,62.8z">
  </path>
 </g>
</svg>